<?xml version="1.0" encoding="utf-8"?>
<!-- Generator: Adobe Illustrator 23.0.3, SVG Export Plug-In . SVG Version: 6.00 Build 0)  -->
<svg version="1.1" id="Слой_1" xmlns="http://www.w3.org/2000/svg" xmlns:xlink="http://www.w3.org/1999/xlink" x="0px" y="0px"
	 viewBox="0 0 252 258" style="enable-background:new 0 0 252 258;" xml:space="preserve">
<style type="text/css">
	.st0{fill:#0A8ACB;}
	.st1{fill:#83BC2F;}
</style>
<path class="st0" d="M127.6,228.5c-54.3,0-98.5-44.2-98.5-98.5s44.2-98.5,98.5-98.5c32.5,0,61.3,15.9,79.2,40.2h28.6
	C214.7,33.3,174.1,7.3,127.6,7.3C60,7.3,4.9,62.3,4.9,129.9c0,67.6,55,122.7,122.7,122.7c46.5,0,87.1-26.1,107.9-64.3h-28.6
	C188.9,212.6,160.1,228.5,127.6,228.5z"/>
<g>
	<path class="st1" d="M88.9,127.4h-3.2c-5.5,0-9.2,1.8-11,5.3c-1.3,2.7-3.2,4.1-5.8,4.1h-5.1c-0.5,0-1.1-0.1-1.7-0.3
		c-0.6-0.2-1.2-0.7-1.8-1.5c-0.6-0.8-0.9-1.8-0.9-3c0-3.3,1.3-6.3,3.8-8.9c2.5-2.6,5.6-4.6,9.4-5.9c3.7-1.3,7.7-2,11.7-2h5.9
		c17.3,0,26,6.3,26,18.9c0,5.3-2,9.4-5.9,12.4c4.5,2.8,6.8,7,6.8,12.5c0,6.7-2.1,11.5-6.4,14.4c-4.2,3-10.5,4.4-18.7,4.4h-9.2
		c-6.4,0-12.2-1.6-17.3-4.8s-7.6-7.3-7.6-12.5c0-1.7,0.5-2.9,1.5-3.7s2-1.1,2.9-1.1h5.1c2.7,0,4.7,1.6,6.2,4.8c1.6,3.4,5.1,5,10.6,5
		h6.2c3.5,0,6.1-0.5,7.8-1.5c1.7-1,2.5-2.7,2.5-5.1c0-2.4-0.8-4.1-2.5-5.1c-1.6-1-4.2-1.5-7.8-1.5h-7.8c-1.1,0-2.1-0.4-2.9-1.2
		c-0.8-0.8-1.2-1.8-1.2-2.9v-3.5c0-1.1,0.4-2,1.2-2.8c0.8-0.8,1.7-1.2,2.7-1.2h6.4c3.8,0,6.6-0.5,8.4-1.5c1.7-1,2.6-2.7,2.6-5.1
		s-0.9-4.1-2.6-5.1C95.5,128,92.7,127.4,88.9,127.4z"/>
	<path class="st1" d="M139.5,139.1h18.2c8.2,0,14.4,1.5,18.7,4.5c4.2,3,6.4,8,6.4,14.9c0,7-2.1,11.9-6.4,14.9
		c-4.2,3-10.5,4.5-18.7,4.5h-9.5c-8.3,0-14.6-1.6-18.8-4.8c-4.2-3.2-6.3-8.7-6.3-16.5v-19.1c0-8.2,2.1-14,6.2-17.3
		c4.2-3.3,10.4-5,18.6-5h11c6.5,0,11.9,1.4,16.2,4.3c4.3,2.9,6.5,6.4,6.5,10.8c0,1.7-0.5,2.9-1.5,3.7c-1,0.7-2,1.1-2.9,1.1h-5.1
		c-2.2,0-4.2-1.4-5.8-4.1c-1.4-2.4-4.4-3.5-8.9-3.5h-8c-3.5,0-6.1,0.7-7.7,2.1s-2.4,4.1-2.4,8V139.1z M156.2,151.3h-16.7v5.3
		c0,3.5,0.8,5.9,2.4,7.2c1.6,1.2,4.2,1.9,7.9,1.9h6.5c3.5,0,6.1-0.5,7.8-1.5c1.6-1,2.5-2.9,2.5-5.6c0-2.7-0.8-4.6-2.5-5.6
		C162.4,151.9,159.8,151.3,156.2,151.3z"/>
	<path class="st1" d="M221.9,177.9h-9.8c-6.5,0-12-1.5-16.4-4.4c-4.5-2.9-6.7-6.6-6.7-10.9c0-1.7,0.5-2.9,1.5-3.7s2-1.1,2.9-1.1h5.1
		c2.4,0,4.4,1.4,5.8,4.1c1.4,2.5,4.5,3.8,9.2,3.8h6.8c3.5,0,6.1-0.6,7.8-1.7c1.6-1.1,2.5-3,2.5-5.8c0-2.7-0.8-4.6-2.5-5.8
		c-1.7-1.1-4.2-1.7-7.8-1.7h-25.1c-1.1,0-2.1-0.4-2.9-1.2c-0.8-0.8-1.2-1.7-1.2-2.8v-27.2c0-1.2,0.4-2.2,1.2-2.9
		c0.8-0.8,1.8-1.2,2.9-1.2h44.5c1.2,0,2.2,0.4,2.9,1.2c0.8,0.8,1.2,1.7,1.2,2.9v4.1c0,1.2-0.4,2.2-1.2,2.9c-0.8,0.8-1.7,1.2-2.9,1.2
		h-32.3v10.8h14.4c8.2,0,14.4,1.5,18.7,4.6c4.2,3.1,6.4,8.1,6.4,15s-2.1,12-6.4,15C236.4,176.4,230.1,177.9,221.9,177.9z"/>
</g>
<g>
	<path class="st0" d="M155.9,108c-2.6-2.3-3.9-5.9-3.9-10.9s1.3-8.6,3.9-10.9c2.6-2.3,6.5-3.4,11.5-3.4c5.1,0,8.9,1.1,11.5,3.4
		c2.6,2.3,3.9,5.9,3.9,10.9s-1.3,8.6-3.9,10.9c-2.6,2.3-6.5,3.4-11.5,3.4C162.3,111.4,158.5,110.3,155.9,108z M173.6,90.2
		c-1.3-1.5-3.4-2.3-6.3-2.3c-2.9,0-5,0.8-6.3,2.3c-1.3,1.5-1.9,3.8-1.9,6.9c0,3,0.6,5.3,1.9,6.9c1.3,1.5,3.4,2.3,6.3,2.3
		c2.9,0,5-0.8,6.3-2.3c1.3-1.5,1.9-3.8,1.9-6.9C175.6,94.1,174.9,91.8,173.6,90.2z"/>
	<path class="st0" d="M192.1,110.8h-3.6c-0.5,0-0.9-0.2-1.3-0.5c-0.4-0.4-0.5-0.8-0.5-1.3V85.2c0-0.5,0.2-0.9,0.5-1.3
		c0.4-0.4,0.8-0.5,1.3-0.5h3.6c0.5,0,0.9,0.2,1.3,0.5c0.4,0.4,0.5,0.8,0.5,1.3v9.2h4.1c1.1,0,2.1-0.3,3-0.9c0.8-0.6,1.7-1.6,2.4-3
		l3-5.3c0.7-1.2,1.6-1.8,2.7-1.8h4.4c0.5,0,0.8,0.2,0.9,0.5c0.1,0.4,0,0.8-0.3,1.3l-4.2,7.5c-0.6,1.1-1.3,2-2,2.7
		c-0.7,0.7-1.7,1.2-2.9,1.5c0.8,0.2,1.7,0.7,2.6,1.6c0.9,0.9,1.7,1.8,2.4,2.9l4.8,7.6c0.3,0.5,0.4,1,0.3,1.3
		c-0.1,0.3-0.4,0.5-0.9,0.5h-4.4c-0.5,0-1-0.2-1.6-0.5c-0.6-0.4-1-0.8-1.3-1.3l-3.4-5.3c-0.8-1.3-1.6-2.3-2.4-2.9s-1.8-1-2.9-1h-4.1
		v9.3c0,0.5-0.2,0.9-0.5,1.3C193.1,110.7,192.6,110.8,192.1,110.8z"/>
	<path class="st0" d="M220.3,108c-2.6-2.3-3.9-5.9-3.9-10.9s1.3-8.6,3.9-10.9c2.6-2.3,6.5-3.4,11.5-3.4c5.1,0,8.9,1.1,11.5,3.4
		c2.6,2.3,3.9,5.9,3.9,10.9s-1.3,8.6-3.9,10.9c-2.6,2.3-6.5,3.4-11.5,3.4C226.7,111.4,222.9,110.3,220.3,108z M238.1,90.2
		c-1.3-1.5-3.4-2.3-6.3-2.3c-2.9,0-5,0.8-6.3,2.3c-1.3,1.5-1.9,3.8-1.9,6.9c0,3,0.6,5.3,1.9,6.9c1.3,1.5,3.4,2.3,6.3,2.3
		c2.9,0,5-0.8,6.3-2.3c1.3-1.5,1.9-3.8,1.9-6.9C240,94.1,239.4,91.8,238.1,90.2z"/>
</g>
</svg>
